<?xml version="1.0" encoding="utf-8"?>
<!-- Generator: Adobe Illustrator 27.5.0, SVG Export Plug-In . SVG Version: 6.00 Build 0)  -->
<svg version="1.1" xmlns="http://www.w3.org/2000/svg" xmlns:xlink="http://www.w3.org/1999/xlink" x="0px" y="0px"
	 viewBox="0 0 500 500" style="enable-background:new 0 0 500 500;" xml:space="preserve">
<g id="BACKGROUND">

</g>
<g id="OBJECTS">
	<g>
		<path id="Background_00000077293742030917481520000011230846521026085792_" style="fill:#F5F8FF;" d="M305.423,113.67
			c23.244,33.421-10.503,30.807,46.824,20.2c61.737-11.423,78.535,34.053,66.84,89.234c-10.842,51.156-57.707,40.262-33.953,89.108
			c39.512,81.248,1.163,107.045-105.213,103.428c-49.778-1.693-87.338,2.642-119.012-5.186c-27.676-6.84-56.502-21.94-64.652-42.458
			c-15.503-39.028,3.737-49.159,15.901-75.264c12.128-26.027,2.077-26.413-9.31-64.749c-24.94-83.966,61.045-76.509,77.895-100.368
			C224.578,65.546,280.695,78.116,305.423,113.67z"/>
		<g>
			<g id="_x3C_Group_x3E__00000151514006374537183610000010785232620927837372_">
				<path id="_x3C_Path_x3E__00000167389021171929907780000012269678482398104482_" style="fill:#E1ECFA;" d="M308.574,344.518
					c0,0.633-0.513,1.146-1.146,1.146H197.291c-8.169,0-14.791-5.475-14.791-12.228v-3.987c0-6.753,6.622-12.228,14.791-12.228
					h110.137c0.633,0,1.146,0.513,1.146,1.146v0.207c0,0.629-0.508,1.141-1.137,1.146l-1.439,0.01l-0.081,23.643l1.511,0
					C308.06,343.372,308.574,343.885,308.574,344.518L308.574,344.518z"/>
				<path id="_x3C_Path_x3E__00000097460446731800991610000010201247821372060330_" style="fill:#E1ECFA;" d="M232.148,319.631
					l73.849,0.098l-0.081,23.643h-74.532c-3.833,0-6.941-3.107-6.941-6.941v-9.096C224.443,323.081,227.893,319.631,232.148,319.631
					z"/>
				<path id="_x3C_Path_x3E__00000033366332806027111590000014521591831607122609_" style="fill:#E1ECFA;" d="M205.682,332.18
					v-1.476c0-0.959,0.777-1.736,1.736-1.736h9.929c0.959,0,1.736,0.777,1.736,1.736v1.476c0,0.959-0.777,1.736-1.736,1.736h-9.929
					C206.459,333.916,205.682,333.139,205.682,332.18z"/>
			</g>
			<g id="_x3C_Group_x3E_">
				<path id="_x3C_Path_x3E__00000052086262427968189220000008936518044316851349_" style="fill:#E1ECFA;" d="M312.19,373.168
					c0,0.633-0.513,1.146-1.146,1.146H200.907c-8.169,0-14.791-5.475-14.791-12.228v-3.987c0-6.753,6.622-12.228,14.791-12.228
					h110.137c0.633,0,1.146,0.513,1.146,1.146v0.207c0,0.629-0.508,1.141-1.137,1.146l-1.439,0.01l-0.081,23.643l1.511,0
					C311.677,372.022,312.19,372.535,312.19,373.168L312.19,373.168z"/>
				<path id="_x3C_Path_x3E__00000022553694934843257180000017331714731174441363_" style="fill:#E1ECFA;" d="M235.765,348.281
					l73.849,0.098l-0.081,23.643H235c-3.833,0-6.941-3.107-6.941-6.941v-9.096C228.059,351.731,231.509,348.281,235.765,348.281z"/>
				<path id="_x3C_Path_x3E__00000179630900748235765430000003162824824115743674_" style="fill:#E1ECFA;" d="M209.298,360.83
					v-1.476c0-0.959,0.777-1.736,1.736-1.736h9.929c0.959,0,1.736,0.777,1.736,1.736v1.476c0,0.959-0.777,1.736-1.736,1.736h-9.929
					C210.075,362.566,209.298,361.789,209.298,360.83z"/>

					<line id="_x3C_Path_x3E__00000038381476203603647740000002592041089070902191_" style="fill:#E1ECFA;" x1="232.186" y1="351.968" x2="309.532" y2="351.968"/>

					<line id="_x3C_Path_x3E__00000093894489817876925730000009660151050110409615_" style="fill:#E1ECFA;" x1="237.764" y1="355.533" x2="309.532" y2="355.533"/>

					<line id="_x3C_Path_x3E__00000057131407990841733510000017376141705301348262_" style="fill:#E1ECFA;" x1="232.186" y1="361.987" x2="309.532" y2="361.987"/>

					<line id="_x3C_Path_x3E__00000050640435709969547840000008551305488966234529_" style="fill:#E1ECFA;" x1="230.973" y1="368.687" x2="309.532" y2="368.687"/>
			</g>
			<g>
				<path id="_x3C_Path_x3E__00000125571330040138031170000012604338031734232242_" style="fill:#E1ECFA;" d="M351.047,413.61
					c0,0.924-0.749,1.674-1.674,1.674H188.449c-11.936,0-21.612-7.999-21.612-17.867v-5.826c0-9.867,9.676-17.867,21.612-17.867
					h160.924c0.925,0,1.674,0.75,1.674,1.674v0.303c0,0.92-0.742,1.667-1.662,1.674l-2.102,0.015l-0.118,34.546l2.208-0.001
					C350.297,411.936,351.047,412.685,351.047,413.61L351.047,413.61z"/>
				<path id="_x3C_Path_x3E__00000100372800747985418470000000643171655862123168_" style="fill:#E1ECFA;" d="M238.652,377.247
					l108.631,0.143l-0.118,34.546H239.199c-6.118,0-11.077-4.959-11.077-11.077v-13.083
					C228.122,381.961,232.836,377.247,238.652,377.247z"/>
				<path id="_x3C_Path_x3E__00000181072609329269373810000014100469055939568778_" style="fill:#E1ECFA;" d="M211.578,405.623
					h-2.157c-1.401,0-2.537-1.136-2.537-2.537v-14.507c0-1.401,1.136-2.537,2.537-2.537h2.157c1.401,0,2.537,1.136,2.537,2.537
					v14.507C214.115,404.488,212.979,405.623,211.578,405.623z"/>
				<path id="_x3C_Path_x3E__00000045586703473086346260000014393744918904575649_" style="fill:#E1ECFA;" d="M200.5,405.711h-2.157
					c-1.401,0-2.537-1.136-2.537-2.537v-14.507c0-1.401,1.136-2.537,2.537-2.537h2.157c1.401,0,2.537,1.136,2.537,2.537v14.507
					C203.036,404.575,201.901,405.711,200.5,405.711z"/>

					<line id="_x3C_Path_x3E__00000062876783411118984270000010249735193231286181_" style="fill:#E1ECFA;" x1="240.24" y1="382.634" x2="347.164" y2="382.634"/>

					<line id="_x3C_Path_x3E__00000065073073972393125170000003652151642348706718_" style="fill:#E1ECFA;" x1="254.841" y1="394.251" x2="347.23" y2="394.251"/>

					<line id="_x3C_Path_x3E__00000034089466327007659080000015973513734211841463_" style="fill:#E1ECFA;" x1="231.631" y1="398.602" x2="347.164" y2="398.602"/>

					<line id="_x3C_Path_x3E__00000151541396233679969240000007481347693995754670_" style="fill:#E1ECFA;" x1="236.387" y1="408.392" x2="347.164" y2="408.392"/>
			</g>
		</g>
		<g>
			<path style="fill:#E1ECFA;" d="M362.041,414.54l-112.835-35.899c-6.623-2.107-10.283-9.184-8.176-15.807l49.532-155.684
				c2.107-6.623,9.184-10.283,15.807-8.176l35.142,11.181l20.848,10.863l13-0.094l43.846,13.95
				c6.623,2.107,10.283,9.184,8.176,15.807l-49.532,155.684C375.741,412.987,368.664,416.648,362.041,414.54z"/>
			<path style="fill:#FFFFFF;" d="M361.907,403.128l-105.996-33.724c-3.918-1.246-6.084-5.433-4.837-9.351l45.699-143.636
				c1.247-3.918,5.433-6.083,9.351-4.837l105.996,33.724c3.918,1.247,6.083,5.433,4.837,9.351l-45.699,143.636
				C370.011,402.209,365.825,404.375,361.907,403.128z"/>
			<path style="fill:#E1ECFA;" d="M386.708,220.521l-10.059-3.2c2.232-7.016-1.646-14.512-8.661-16.744s-14.512,1.646-16.745,8.661
				l-9.894-3.148c-2.511-0.799-5.194,0.589-5.993,3.1l-1.739,5.467c-1.759,5.53,1.297,11.44,6.828,13.199l34.261,10.9
				c5.53,1.76,11.44-1.297,13.199-6.827l1.792-5.632C390.466,223.877,389.128,221.291,386.708,220.521z M365.789,207.486
				c3.199,1.018,4.968,4.437,3.95,7.636c-1.018,3.199-4.437,4.968-7.636,3.95c-3.199-1.018-4.968-4.437-3.95-7.636
				C359.171,208.237,362.59,206.468,365.789,207.486z"/>
			<path style="fill:#E1ECFA;" d="M396.712,267.54l-90.861-28.908c-1.346-0.428-2.09-1.866-1.661-3.212l0,0
				c0.428-1.346,1.866-2.09,3.212-1.662l90.861,28.908c1.346,0.428,2.09,1.866,1.662,3.212l0,0
				C399.496,267.224,398.057,267.968,396.712,267.54z"/>
			<path style="fill:#E1ECFA;" d="M392.967,279.31l-90.861-28.908c-1.346-0.428-2.09-1.866-1.661-3.212l0,0
				c0.428-1.346,1.866-2.09,3.212-1.661l90.861,28.908c1.346,0.428,2.09,1.866,1.662,3.212l0,0
				C395.751,278.995,394.312,279.739,392.967,279.31z"/>
			<path style="fill:#E1ECFA;" d="M389.222,291.081l-90.861-28.908c-1.346-0.428-2.09-1.866-1.661-3.212l0,0
				c0.428-1.346,1.866-2.09,3.212-1.661l90.861,28.908c1.346,0.428,2.09,1.866,1.662,3.212l0,0
				C392.006,290.766,390.567,291.509,389.222,291.081z"/>
			<path style="fill:#E1ECFA;" d="M385.477,302.852l-90.861-28.908c-1.346-0.428-2.09-1.866-1.661-3.212l0,0
				c0.428-1.346,1.866-2.09,3.212-1.662l90.861,28.908c1.346,0.428,2.09,1.866,1.662,3.212l0,0
				C388.261,302.536,386.822,303.28,385.477,302.852z"/>
			<path style="fill:#E1ECFA;" d="M381.732,314.623l-90.861-28.908c-1.346-0.428-2.09-1.866-1.661-3.212l0,0
				c0.428-1.346,1.866-2.09,3.212-1.661l90.861,28.908c1.346,0.428,2.09,1.866,1.662,3.212l0,0
				C384.516,314.307,383.077,315.051,381.732,314.623z"/>
			<path style="fill:#E1ECFA;" d="M377.987,326.394l-90.861-28.908c-1.346-0.428-2.09-1.866-1.662-3.212v0
				c0.428-1.346,1.866-2.09,3.212-1.661l90.861,28.908c1.346,0.428,2.09,1.866,1.661,3.212l0,0
				C380.771,326.078,379.332,326.822,377.987,326.394z"/>
			<path style="fill:#E1ECFA;" d="M374.242,338.165l-90.861-28.908c-1.346-0.428-2.09-1.866-1.662-3.212l0,0
				c0.428-1.346,1.866-2.09,3.212-1.662l90.861,28.908c1.346,0.428,2.09,1.866,1.661,3.212l0,0
				C377.026,337.849,375.587,338.593,374.242,338.165z"/>
			<path style="fill:#E1ECFA;" d="M370.497,349.935l-90.861-28.908c-1.346-0.428-2.09-1.866-1.662-3.212l0,0
				c0.428-1.346,1.866-2.09,3.212-1.661l90.861,28.908c1.346,0.428,2.09,1.866,1.661,3.212l0,0
				C373.281,349.62,371.842,350.364,370.497,349.935z"/>
			<path style="fill:#E1ECFA;" d="M366.818,361.497l-90.861-28.908c-1.346-0.428-2.09-1.866-1.662-3.212l0,0
				c0.428-1.346,1.866-2.09,3.212-1.662l90.861,28.908c1.346,0.428,2.09,1.866,1.662,3.212l0,0
				C369.602,361.181,368.164,361.925,366.818,361.497z"/>
			<path style="fill:#E1ECFA;" d="M363.073,373.267l-90.861-28.908c-1.346-0.428-2.09-1.866-1.661-3.212l0,0
				c0.428-1.346,1.866-2.09,3.212-1.661l90.861,28.908c1.346,0.428,2.09,1.866,1.662,3.212l0,0
				C365.857,372.952,364.419,373.696,363.073,373.267z"/>
			<path style="fill:#E1ECFA;" d="M359.328,385.038l-90.861-28.908c-1.346-0.428-2.09-1.866-1.661-3.212l0,0
				c0.428-1.346,1.866-2.09,3.212-1.661l90.861,28.908c1.346,0.428,2.09,1.866,1.662,3.212v0
				C362.112,384.723,360.674,385.466,359.328,385.038z"/>
		</g>
		<g>
			<g id="Leaf_00000008840890632763503650000000737099476550158492_">
				<path id="Leaf_Part_00000039129730443470700970000016279269476925448584_" style="fill:#E1ECFA;" d="M126.996,414.924
					c0,0-12.245,4.135-13.948-5.057c-0.987-5.331-9.364-0.871-11.779-4.284c-2.415-3.412,0.13-8.176-4.357-10.171
					c-4.487-1.995-8.341-5.426-6.339-11.337c2.002-5.91-4.747-8.482,0.247-12.585c4.994-4.103,11.374,2.123,12.915,9.585
					c1.541,7.462,9.077,3.82,9.768,11.12c0.691,7.3,8.829,4.424,9.555,10.403C123.786,408.578,132.799,407.531,126.996,414.924z"/>
				<g id="Leaf_Part_00000151516633574483803120000016826721232341460151_">
					<path id="Leaf_Part_00000031920895425350503660000016369920711758759060_" style="fill:#E1ECFA;" d="M119.299,405.434
						c-0.011,0.001-0.023,0.002-0.035,0.001c-0.071-0.004-7.115-0.452-10.908-7.648c-2.589-4.911-4.051-6.008-6.075-7.525
						c-0.894-0.671-1.907-1.43-3.156-2.636c-4.026-3.887-4.201-10.386-4.207-10.661c-0.002-0.103,0.087-0.179,0.2-0.17
						c0.112,0.008,0.205,0.098,0.207,0.201c0.001,0.066,0.179,6.621,4.082,10.39c1.228,1.186,2.229,1.937,3.113,2.599
						c1.992,1.494,3.566,2.674,6.199,7.67c3.671,6.964,10.46,7.406,10.528,7.41c0.112,0.006,0.207,0.094,0.212,0.196
						C119.463,405.352,119.394,405.424,119.299,405.434z"/>
				</g>
			</g>
			<g id="Leaf_00000178196070748532079460000003701048202633711793_">
				<path id="Leaf_Part_00000162340909367108974130000015368074405375764908_" style="fill:#E1ECFA;" d="M388.815,415.175
					c0,0,12.944,2.98,13.953-6.881c0.585-5.718,8.684-1.502,10.722-5.272c2.038-3.77-0.638-8.669,3.424-11.063
					c4.062-2.393,7.441-6.273,5.2-12.422c-2.242-6.149,3.895-9.295-1.025-13.341c-4.92-4.046-10.481,2.954-11.448,10.969
					c-0.967,8.014-8.23,4.614-8.413,12.403c-0.184,7.79-9.656,5.09-9.956,11.48C390.969,407.437,382.932,407.686,388.815,415.175z"
					/>
				<g id="Leaf_Part_00000166669904422833199340000010160136272474231204_">
					<path id="Leaf_Part_00000178922242596461238570000000032554131266082972_" style="fill:#E1ECFA;" d="M399.901,406.765
						c0.011-0.001,0.022-0.003,0.033-0.007c0.065-0.02,6.489-2.031,8.359-10.198c1.276-5.574,2.38-7.014,3.908-9.006
						c0.675-0.88,1.44-1.878,2.322-3.382c2.841-4.848,1.518-11.507,1.46-11.788c-0.021-0.105-0.122-0.163-0.224-0.129
						c-0.102,0.033-0.168,0.145-0.146,0.25c0.014,0.067,1.348,6.784-1.406,11.484c-0.867,1.479-1.623,2.465-2.29,3.335
						c-1.504,1.962-2.692,3.511-3.99,9.181c-1.809,7.904-7.998,9.853-8.06,9.871c-0.102,0.031-0.17,0.141-0.151,0.247
						C399.731,406.717,399.811,406.776,399.901,406.765z"/>
				</g>
			</g>
			<g id="Leaf_00000080918029281571629680000011090157228863770803_">
				<path id="Leaf_Part_00000162350501261362714650000003330735203103837858_" style="fill:#E1ECFA;" d="M134.365,415.187
					c0,0-16.05,3.829-9.973-10.58c2.267-5.375-8.111-4.718-8.415-8.947c-0.305-4.229,4.703-7.674,1.7-11.425
					c-3.003-3.751-4.618-8.598,0.534-13.351c5.152-4.753,0.396-9.991,7.282-11.792c6.886-1.8,9.255,6.737,6.487,14.431
					c-2.768,7.694,6.194,7.385,2.736,14.572c-3.458,7.186,7.419,8.37,4.734,14.323C136.766,408.371,143.062,416.687,134.365,415.187
					z"/>
				<g id="Leaf_Part_00000031887529496346306010000013888867940771990915_">
					<path id="Leaf_Part_00000140004078301730066030000005500337609423708037_" style="fill:#E1ECFA;" d="M128.015,404.315
						c-0.01-0.005-0.021-0.011-0.03-0.019c-0.057-0.043-5.636-4.356-3.712-12.536c1.313-5.584,0.866-7.324,0.247-9.733
						c-0.273-1.064-0.583-2.27-0.774-3.984c-0.616-5.524,3.843-11.096,4.033-11.331c0.071-0.087,0.2-0.102,0.288-0.032
						c0.088,0.07,0.102,0.197,0.031,0.285c-0.046,0.056-4.542,5.678-3.945,11.033c0.188,1.685,0.494,2.877,0.764,3.928
						c0.609,2.371,1.09,4.244-0.245,9.924c-1.862,7.918,3.508,12.082,3.562,12.123c0.09,0.068,0.107,0.195,0.038,0.284
						C128.211,404.337,128.102,404.359,128.015,404.315z"/>
				</g>
			</g>
		</g>
	</g>
	<path style="fill:#E69724;" d="M141.207,270.451l16.268-0.186c2.789-49.862,41.929-91.545,93.104-96.036
		c56.139-4.927,105.82,36.736,110.747,92.875c4.927,56.138-36.737,105.819-92.875,110.746c-17.73,1.556-35.597-1.54-51.67-8.954
		c-4.093-1.888-5.881-6.737-3.993-10.83c1.888-4.094,6.738-5.88,10.831-3.993c13.495,6.225,28.503,8.824,43.405,7.516
		c47.172-4.14,82.181-45.886,78.041-93.058c-4.14-47.172-45.886-82.181-93.058-78.041c-42.621,3.741-75.309,38.183-78.166,79.588
		l15.544-0.178c2.277-0.026,3.728,2.423,2.612,4.407l-11.805,20.999l-11.805,20.999c-1.116,1.985-3.962,2.017-5.123,0.059
		L150.98,295.64l-12.283-20.723C137.536,272.958,138.93,270.477,141.207,270.451z"/>
	<g id="_x3C_Group_x3E__00000034791534703184507190000016995712744274724497_">
		<path id="_x3C_Path_x3E__00000167385906909606676070000017240972750715837592_" style="fill:#F0C66C;" d="M314.478,383.949
			c0,0.476-0.386,0.862-0.862,0.862H230.74c-6.147,0-11.13-4.12-11.13-9.201v-3c0-5.082,4.983-9.201,11.13-9.201h82.876
			c0.476,0,0.862,0.386,0.862,0.862v0.156c0,0.474-0.382,0.859-0.856,0.862l-1.083,0.008l-0.061,17.791l1.137,0
			C314.092,383.086,314.478,383.473,314.478,383.949L314.478,383.949z"/>
		<path id="_x3C_Path_x3E__00000112602075080695153720000011409952749078889858_" style="fill:#F9ECDC;" d="M256.97,365.222
			l55.57,0.074l-0.061,17.791h-56.084c-2.884,0-5.223-2.338-5.223-5.223v-6.844C251.172,367.818,253.767,365.222,256.97,365.222z"/>
		<path id="_x3C_Path_x3E__00000139272152309984407680000003669578909212855175_" style="fill:#E69724;" d="M237.054,374.235v-0.251
			c0-0.959,0.777-1.736,1.736-1.736h6.612c0.959,0,1.736,0.777,1.736,1.736v0.251c0,0.959-0.777,1.736-1.736,1.736h-6.612
			C237.831,375.971,237.054,375.194,237.054,374.235z"/>

			<line id="_x3C_Path_x3E__00000178170872827958139860000005096117648890301874_" style="fill:none;stroke:#F0C66C;stroke-linecap:round;stroke-miterlimit:10;" x1="254.276" y1="367.996" x2="312.478" y2="367.996"/>

			<line id="_x3C_Path_x3E__00000093143134628764753640000006917930311914040973_" style="fill:none;stroke:#F0C66C;stroke-linecap:round;stroke-miterlimit:10;" x1="258.474" y1="370.679" x2="312.478" y2="370.679"/>

			<line id="_x3C_Path_x3E__00000124160763111552018890000003941713497465124528_" style="fill:none;stroke:#F0C66C;stroke-linecap:round;stroke-miterlimit:10;" x1="254.276" y1="375.535" x2="312.478" y2="375.535"/>

			<line id="_x3C_Path_x3E__00000146474926618906314040000008292262119583078046_" style="fill:none;stroke:#F0C66C;stroke-linecap:round;stroke-miterlimit:10;" x1="253.364" y1="380.577" x2="312.478" y2="380.577"/>
	</g>
	<g id="_x3C_Group_x3E__00000130613895940526032400000009354162714318327681_">
		<path id="_x3C_Path_x3E__00000100355916484724687010000017148839761101638809_" style="fill:#E69724;" d="M345.222,414.381
			c0,0.696-0.564,1.26-1.26,1.26H222.871c-8.981,0-16.262-6.019-16.262-13.444v-4.384c0-7.425,7.281-13.444,16.262-13.444h121.092
			c0.696,0,1.26,0.564,1.26,1.26v0.228c0,0.692-0.558,1.255-1.25,1.26l-1.582,0.012l-0.089,25.995l1.662,0
			C344.658,413.121,345.222,413.685,345.222,414.381L345.222,414.381z"/>
		<path id="_x3C_Path_x3E__00000087392919549472076420000008445200967824670374_" style="fill:#F9ECDC;" d="M260.649,387.018
			l81.76,0.108l-0.089,25.995h-81.259c-4.604,0-8.337-3.732-8.337-8.335v-9.845C252.724,390.566,256.272,387.018,260.649,387.018z"
			/>
		<path id="_x3C_Path_x3E__00000173125560280626251190000012190472355068770222_" style="fill:#F0C66C;" d="M239.647,408.371h-0.367
			c-1.401,0-2.537-1.136-2.537-2.537v-9.661c0-1.401,1.136-2.537,2.537-2.537h0.367c1.401,0,2.536,1.136,2.536,2.537v9.661
			C242.184,407.235,241.048,408.371,239.647,408.371z"/>
		<path id="_x3C_Path_x3E__00000099625251517633073330000002193134208948347831_" style="fill:#F0C66C;" d="M231.311,408.437h-0.367
			c-1.401,0-2.537-1.136-2.537-2.537v-9.661c0-1.401,1.136-2.537,2.537-2.537h0.367c1.401,0,2.537,1.136,2.537,2.537v9.661
			C233.847,407.301,232.712,408.437,231.311,408.437z"/>

			<line id="_x3C_Path_x3E__00000090981234388938485740000004232786686920309165_" style="fill:none;stroke:#F0C66C;stroke-linecap:round;stroke-miterlimit:10;" x1="261.843" y1="391.072" x2="342.301" y2="391.072"/>

			<line id="_x3C_Path_x3E__00000067948751744065027740000017808118004324651709_" style="fill:none;stroke:#F0C66C;stroke-linecap:round;stroke-miterlimit:10;" x1="272.829" y1="399.813" x2="342.35" y2="399.813"/>

			<line id="_x3C_Path_x3E__00000011733190973667769690000008688769274277810076_" style="fill:none;stroke:#F0C66C;stroke-linecap:round;stroke-miterlimit:10;" x1="255.364" y1="403.087" x2="342.301" y2="403.087"/>

			<line id="_x3C_Path_x3E__00000011711974012639607200000009520714666978372509_" style="fill:none;stroke:#F0C66C;stroke-linecap:round;stroke-miterlimit:10;" x1="258.942" y1="410.454" x2="342.301" y2="410.454"/>
	</g>
	<g>
		<polygon id="_x3C_Path_x3E__00000134939520172373192170000017487192426100516766_" style="fill:#E1B39D;" points="
			181.268,391.085 178.614,397.667 186.027,399.56 188.367,394.163 		"/>
		<path id="_x3C_Path_x3E__00000026861882546704235400000005430326698264313485_" style="fill:#2F526E;" d="M186.027,399.56
			c-7.095-3.249-9.43-4.285-20.368-3.724c-1.502,0.137-1.819,2.202-0.435,2.802l16.504,7.157
			C184.056,406.981,186.027,399.56,186.027,399.56z"/>
		<polygon id="_x3C_Path_x3E__00000073703780457394651770000002645682704439587756_" style="fill:#E1B39D;" points="
			199.706,394.837 198.535,401.863 206.119,402.484 207.206,396.703 		"/>
		<path id="_x3C_Path_x3E__00000041279731810572686050000004280065745927387009_" style="fill:#315780;" d="M206.119,402.484
			c-7.638-1.597-10.145-2.091-20.687,0.878c-1.434,0.466-1.286,2.55,0.197,2.829l17.679,3.325
			C205.84,410.158,206.119,402.484,206.119,402.484z"/>
		<path style="fill:#2F5482;" d="M260.875,326.783c0,0,15.671-0.934,15.671-8.504c0-7.57-7.031-6.402-4.922-15.774
			c1.951-8.672-1.053-11.725-5.356-14.999c-6.717-5.111-1.785-8.998-5.989-15.448c-3.25-4.985-15.525-10.038-21.63-1.327
			c-8.593,12.262-8.838,12.931-8.938,17.333c-0.202,8.815,8.386,5.755-0.151,19.446c-8.537,13.691,6.17,20.315,18.089,23.215
			C259.566,333.625,260.875,326.783,260.875,326.783z"/>
		<path style="fill:#F3D6C1;" d="M247.784,274.875c-0.851-0.477-1.662-1.016-2.418-0.401c-2.131,1.734-5.738,5.53-5.249,11.065
			c0.496,5.613,1.126,8.295,3.987,8.504c0.929,0.068,1.661,0.808,1.615,1.738l-0.134,3.857c0,0-0.418,0.379-0.572,0.621
			l-4.299,7.533c-0.383,0.604-0.336,1.386,0.117,1.939l4.648,5.671c0.755,0.921,2.205,0.769,2.753-0.287l7.888-15.202
			c0.203-0.392,0.055-0.836-0.076-1.258c-0.478-1.553-2.957-4.735,0.726-13.558c0.293-0.701,0.397-3.307-1.553-2.783
			c-0.562,0.208-0.598,1.247-1.504,0.441C252.333,281.528,252.515,277.523,247.784,274.875z"/>
		<path style="fill:#315782;" d="M227.525,340.816l-21.759,4.834c-2.75,0.611-5.066,2.453-6.281,4.995l-19.608,41.028
			c-0.364,0.762,0.052,1.667,0.868,1.887l7.194,1.937c0.568,0.153,1.169-0.079,1.487-0.573l26.04-40.465
			c0.198-0.308,0.513-0.522,0.872-0.594l25.111-4.996c1.316-0.262,1.487-2.074,0.243-2.577l-13.368-5.409
			C228.071,340.78,227.792,340.757,227.525,340.816z"/>
		<path style="fill:#ECCBB5;" d="M234.623,312.839l-3.967,15.544c-0.144,0.565-0.476,1.065-0.94,1.418l-5.903,4.482
			c-1.013,0.769-1.314,2.16-0.712,3.28l0.515,0.956c0.662,1.229,2.18,1.709,3.428,1.085l8.165-4.083
			c0.551-0.275,0.985-0.739,1.225-1.306l7.354-17.449L234.623,312.839z"/>
		<path style="fill:#315782;" d="M240.323,344.633c-0.225-0.098-0.473-0.12-0.712-0.064l-19.405,4.535
			c-4.505,0.781-8.262,3.875-9.89,8.148c-3.713,9.743-10.362,32.995-11.802,38.072c-0.16,0.564,0.133,1.15,0.68,1.361
			c1.658,0.638,5.083,1.943,7.213,2.67c0.555,0.19,1.158-0.073,1.398-0.608c2.164-4.824,12.084-26.934,13.948-31.09
			c0.185-0.411,0.961-2.258,1.935-2.258c5.762,0,42.252,3.46,41.73-10.571C264.694,353.545,243.378,345.971,240.323,344.633z"/>
		<path style="fill:#F0C66C;" d="M245.584,299.638c0,0-2.405,4.135,0.878,5.116c4.229,1.264,8.341-2.385,9.216-5.515
			c0.078-0.277,0.165-0.911,0.452-0.927c1.641-0.093,6.518-0.067,8.734,3.923c2.113,3.804,2.095,10.165,2.009,12.479
			c-0.018,0.499-0.407,0.901-0.905,0.938l-7.629,0.557c-0.818,0.06-1.203,1.033-0.646,1.635c1.23,1.328,2.871,3.59,3.847,6.93
			c1.142,3.907,1.731,5.948,2.839,13.425c0.644,4.346,1.152,12.917,1.332,16.231c0.036,0.667-0.592,1.168-1.235,0.987
			c-3.478-0.984-13.027-3.747-17.792-5.759c-5.891-2.488-15.729-6.146-15.729-6.146s9.042-4.095,8.056-12.211
			c-0.986-8.117-2.295-10.997-1.117-16.365l-3.716-1.062c-0.495-0.142-0.798-0.638-0.688-1.141
			C234.245,309.283,235.868,299.828,245.584,299.638z"/>
		<path style="fill:#F3D6C1;" d="M225.293,339.769c0,0,3.609-2.981,6.925-1.817c0.433,0.152,0.898,0.174,1.346,0.076
			c2.954-0.646,13.565-2.968,17.711-3.875c1.016-0.222,1.797-1.035,1.98-2.059l2.82-15.721l9.322-0.681
			c0,0-1.949,19.923-7.934,25.147c-0.411,0.359-0.938,0.553-1.483,0.586c-3.809,0.232-20.567,1.253-22.658,1.38
			c-0.16,0.01-0.311,0.034-0.466,0.074c-0.393,0.099-1.182,0.318-1.899,0.63c-1.008,0.439-2.185,0.162-2.917-0.659L225.293,339.769z
			"/>
		<path style="fill:none;stroke:#264154;stroke-width:0.5;stroke-linecap:round;stroke-miterlimit:10;" d="M200.296,351.41
			c0,0,3.602,0.948,6.508-1.137c2.907-2.085,1.453-5.118,1.453-5.118"/>
		<path style="fill:none;stroke:#264154;stroke-width:0.5;stroke-linecap:round;stroke-miterlimit:10;" d="M206.568,368.284
			l3.566-11.141c1.194-3.73,4.25-6.565,8.06-7.477l16.685-3.991"/>
		<path style="fill:none;stroke:#264154;stroke-width:0.5;stroke-linecap:round;stroke-miterlimit:10;" d="M255.235,353.837
			c0,0-3.059,3.636-0.815,8.311"/>
		<path style="fill:none;stroke:#264154;stroke-width:0.5;stroke-linecap:round;stroke-miterlimit:10;" d="M216.37,351.625
			c0,0,2.73,5.288-5.23,6.368"/>

			<line style="fill:none;stroke:#264154;stroke-width:0.5;stroke-linecap:round;stroke-miterlimit:10;" x1="182.208" y1="390.926" x2="188.474" y2="392.904"/>

			<line style="fill:none;stroke:#264154;stroke-width:0.5;stroke-linecap:round;stroke-miterlimit:10;" x1="201.17" y1="394.718" x2="206.568" y2="396.531"/>
		<path style="fill:none;stroke:#E69724;stroke-width:0.5;stroke-linecap:round;stroke-miterlimit:10;" d="M261.02,300.662
			c0,0-6.647,0.717-4.944,15.712"/>
		<path style="fill:none;stroke:#E69724;stroke-width:0.5;stroke-linecap:round;stroke-miterlimit:10;" d="M241.781,304.754
			c0,0-3.791,4.642-3.947,9.876"/>
		<path style="fill:#E69724;" d="M206.563,345.262l-10.696-15.662c-0.43-0.629,0.021-1.482,0.783-1.482h22.517
			c0.327,0,0.63,0.168,0.804,0.445l8.95,14.32c0.173,0.277,0.477,0.445,0.804,0.445h10.503c0.523,0,0.948,0.424,0.948,0.948v0.452
			c0,0.523-0.424,0.948-0.948,0.948h-32.882C207.032,345.675,206.739,345.52,206.563,345.262z"/>
		<path style="fill:#F0C66C;" d="M215.054,335.79c0.731,1.517,0.294,3.242-0.975,3.853c-1.269,0.611-2.89-0.123-3.62-1.641
			c-0.731-1.517-0.294-3.242,0.975-3.853C212.703,333.538,214.324,334.273,215.054,335.79z"/>
	</g>
	<g>
		<g>
			<path id="Ellipse_00000136379507924437098770000012945547770115347108_" style="fill:#F0C66C;" d="M138.318,222.837
				c-0.646,37.834-56.924,37.829-57.565-0.001C81.399,185.002,137.677,185.008,138.318,222.837z"/>

				<path id="Ellipse_00000134245821283611012670000018029379682162067338_" style="fill:none;stroke:#F0C66C;stroke-width:0.5;stroke-miterlimit:10;" d="
				M141.41,222.837c-0.715,41.899-63.04,41.893-63.749-0.001C78.377,180.938,140.701,180.944,141.41,222.837z"/>
			<g>
				<path style="fill:#FFFFFF;" d="M112.135,232.374c-0.487-4.838-5.157-1.581-5.157-1.581l-0.065-5.062l-5.342,0.069
					c0,0,0.989,0.994,1.276,2.184c0.331,1.373-0.185,2.971-2.809,3.005c-2.048,0.026-3.005-1.706-2.637-3.138
					c0.286-1.114,1.119-2.012,1.119-2.012l-5.481,0.071c0.179,13.873,0.179,13.873,14.051,13.694l-0.07-5.465
					C107.779,235.272,112.521,236.212,112.135,232.374z"/>
				<path style="fill:#F9ECD1;" d="M118.83,220.657c-4.899,0-1.683,5.135-1.683,5.135h-4.99v5.063c0,0,4.712-3.196,5.136,1.648
					c0.336,3.843-4.393,2.842-5.136,1.698v5.465c13.874,0,13.874,0,13.874-13.874h-5.568
					C120.462,225.792,123.907,220.657,118.83,220.657z"/>
				<path style="fill:#F9ECD1;" d="M97.434,221.996c-0.368,1.432,0.588,3.165,2.636,3.139c2.624-0.033,3.141-1.631,2.81-3.004
					c-0.287-1.19-1.275-2.184-1.275-2.184l5.342-0.067l-0.065-5.211c0,0-3.25,2.923-4.905,0.061
					c-1.746-3.02,1.873-5.908,4.868-3.038l-0.071-5.685c-13.873,0.173-13.873,0.173-13.7,14.046l5.481-0.068
					C98.554,219.985,97.72,220.882,97.434,221.996z"/>
				<path style="fill:#FFFFFF;" d="M112.122,206.418l0.011,5.685c-2.964-2.901-6.614-0.052-4.899,2.986
					c1.625,2.879,4.905-0.01,4.905-0.01l0.01,5.212l4.99-0.01c0,0-3.226-5.128,1.673-5.138c5.077-0.01,1.642,5.132,1.642,5.132
					l5.569-0.011C125.996,206.39,126.429,206.389,112.122,206.418z"/>
			</g>
		</g>
		<g>
			<g>
				<path id="Ellipse_00000119799063196535418470000005316615372584214440_" style="fill:#F0C66C;" d="M166.893,137.072
					c0.646,37.834,56.924,37.828,57.565-0.001C223.812,99.238,167.534,99.244,166.893,137.072z"/>

					<path id="Ellipse_00000164487718587078879910000011513968184989044156_" style="fill:none;stroke:#F0C66C;stroke-width:0.5;stroke-miterlimit:10;" d="
					M163.801,137.072c0.716,41.899,63.04,41.893,63.749-0.001C226.834,95.173,164.51,95.18,163.801,137.072z"/>
			</g>
			<g>
				<path style="fill:#FFFFFF;" d="M214.456,137.072v-7.399c0-1.562-1.691-2.538-3.043-1.757l-6.408,3.7l-6.408,3.7
					c-1.352,0.781-1.352,2.733,0,3.514l6.408,3.699l6.408,3.7c1.352,0.781,3.043-0.195,3.043-1.757V137.072z"/>
				<path style="fill:#FFFFFF;" d="M193.193,137.072v-7.399c0-1.562-1.691-2.538-3.043-1.757l-6.408,3.7l-6.408,3.7
					c-1.352,0.781-1.352,2.733,0,3.514l6.408,3.699l6.408,3.7c1.352,0.781,3.043-0.195,3.043-1.757V137.072z"/>
			</g>
		</g>
		<g>
			<g>
				<path id="Ellipse_00000134939061983923778380000018339142568881601942_" style="fill:#F0C66C;" d="M364.988,141.351
					c-0.646,37.834-56.924,37.828-57.565-0.001C308.069,103.517,364.347,103.523,364.988,141.351z"/>

					<path id="Ellipse_00000121268876139808893230000005458147300034111674_" style="fill:none;stroke:#F0C66C;stroke-width:0.5;stroke-miterlimit:10;" d="
					M368.08,141.351c-0.715,41.899-63.04,41.893-63.749-0.001C305.046,99.452,367.37,99.459,368.08,141.351z"/>
			</g>
			<g>
				<path id="_x3C_Path_x3E__00000050628859999074497650000004359880380477883568_" style="fill:#FFFFFF;" d="M331.266,120.638
					c11.63-4.261,20.431,7.062,19.169,16.07c-0.549,8.881-10.941,14.37-9.997,17.724c-2.147,0-6.466,0-8.612,0
					c0,0,0.612-1.651-1.632-3.633C321.724,144.124,316.268,127.378,331.266,120.638z"/>
				<path id="_x3C_Path_x3E_" style="fill:#E69724;" d="M340.438,154.432c-0.048,4.072,0.99,8.981-4.932,8.528
					c-4.65-0.152-3.598-5.401-3.686-8.528H340.438z"/>
				<path style="fill:none;stroke:#F0C66C;stroke-linecap:round;stroke-miterlimit:10;" d="M337.855,154.432
					c0,0-0.156-13.553,1.038-17.312c1.194-3.759,3.581-6.66,5.346-3.429c3.396,10.271-14.823,12.847-16.245,3.758
					c-1.879-8.765,7.982-9.512,6.336,16.983"/>
			</g>
		</g>
	</g>

		<line style="fill:none;stroke:#315782;stroke-linecap:round;stroke-miterlimit:10;" x1="67.158" y1="415.64" x2="432.842" y2="415.64"/>
</g>
</svg>
